<?xml version="1.0" encoding="UTF-8" standalone="no"?>
<!DOCTYPE svg PUBLIC "-//W3C//DTD SVG 1.1//EN"
"http://www.w3.org/Graphics/SVG/1.1/DTD/svg11.dtd">


<!-- Page 1 -->
<svg x="0" y="0" width="589" height="162" viewBox="0 0 589 162" version="1.1" xmlns="http://www.w3.org/2000/svg" xmlns:xlink="http://www.w3.org/1999/xlink"
style="display: block;margin-left: auto;margin-right: auto;">
<defs>
<clipPath id="c0_1"><path d="M49.2,96.7V30.8h65.9V96.7Z" /></clipPath>
<clipPath id="c1_1"><path d="M57.6,88.3V39.2h49.1V88.3Z" /></clipPath>
<clipPath id="c2_1"><path d="M80.5,139.3V102.6h36.6v36.7Z" /></clipPath>
<clipPath id="c3_1"><path d="M7.6,135.2V79.7H63.2v55.5Z" /></clipPath>
<clipPath id="c4_1"><path d="M14.7,128.2V86.7H56.2v41.5Z" /></clipPath>
<clipPath id="c5_1"><path d="M-33.9,532.4V-640.8H1530.4V532.4Z" /></clipPath>

<style type="text/css"><![CDATA[
text { white-space: pre; }
path, image { pointer-events: none; }
text::-moz-selection {
	color: transparent;
	background: rgba(0, 106, 173, 0.4);
}
text::selection {
	color: transparent;
	background: rgba(0, 106, 173, 0.4);
}

.s1_1{
font-size: 64.17px;
font-family: FranklinGothic-Medium_9;
fill: TRANSPARENT;
}

.g0_1{
fill: #FFFFFF;
}
.g1_1{
fill: #EE220C;
}
.g2_1{
fill: #00A2FF;
}
.g3_1{
fill: #5E5E5E;
}
.g4_1{
fill: #A2A2A2;
}
.g5_1{
fill: #DE2D26;
}
.g6_1{
fill: #6BAED6;
}

]]></style>

</defs>
<path d="M0,0
L0,162
L589,162
L589,0 Z " 
fill="#FFFFFF" stroke="none" />
<path d="M-33.9,532.4H1530.4V-640.8H-33.9V532.4Z" class="g0_1" />
<g clip-path="url(#c0_1)">
<path d="M104.4,41.5c12.3,12.3,12.3,32.2,0,44.5C92.1,98.3,72.2,98.3,59.9,86C47.6,73.7,47.6,53.8,59.9,41.5c12.3,-12.3,32.2,-12.3,44.5,0Z" class="g1_1" />
</g>
<g clip-path="url(#c1_1)">
<path d="M98.5,47.5c9,9,9,23.6,0,32.6c-9,9,-23.6,9,-32.6,0c-9,-9,-9,-23.6,0,-32.6c9,-9,23.6,-9,32.6,0Z" class="g2_1" />
</g>
<g clip-path="url(#c0_1)">
<path d="M104.4,41.5c12.3,12.3,12.3,32.2,0,44.5C92.1,98.3,72.2,98.3,59.9,86C47.6,73.7,47.6,53.8,59.9,41.5c12.3,-12.3,32.2,-12.3,44.5,0Z" class="g3_1" />
</g>
<g clip-path="url(#c1_1)">
<path d="M98.5,47.5c9,9,9,23.6,0,32.6c-9,9,-23.6,9,-32.6,0c-9,-9,-9,-23.6,0,-32.6c9,-9,23.6,-9,32.6,0Z" class="g4_1" />
</g>
<path d="M172.3,66.2c12.3,12.3,12.3,32.2,0,44.5c-12.2,12.3,-32.2,12.3,-44.4,0c-12.3,-12.3,-12.3,-32.2,0,-44.5C140.1,54,160.1,54,172.3,66.2Z" class="g1_1" />
<path d="M166.4,72.2c9,9,9,23.6,0,32.6c-9,9,-23.6,9,-32.6,0c-9,-9,-9,-23.6,0,-32.6c9,-9,23.6,-9,32.6,0Z" class="g2_1" />
<path d="M172.3,66.2c12.3,12.3,12.3,32.2,0,44.5c-12.2,12.3,-32.2,12.3,-44.4,0c-12.3,-12.3,-12.3,-32.2,0,-44.5C140.1,54,160.1,54,172.3,66.2Z" class="g5_1" />
<path d="M166.4,72.2c9,9,9,23.6,0,32.6c-9,9,-23.6,9,-32.6,0c-9,-9,-9,-23.6,0,-32.6c9,-9,23.6,-9,32.6,0Z" class="g6_1" />
<g clip-path="url(#c2_1)">
<path d="M110.7,109c6.5,6.6,6.5,17.3,0,23.8c-6.6,6.6,-17.2,6.6,-23.8,0c-6.6,-6.5,-6.6,-17.2,0,-23.8c6.6,-6.5,17.2,-6.5,23.8,0Z" class="g1_1" />
</g>
<path d="M107.5,112.2c4.8,4.8,4.8,12.6,0,17.4c-4.8,4.9,-12.6,4.9,-17.4,0c-4.8,-4.8,-4.8,-12.6,0,-17.4c4.8,-4.8,12.6,-4.8,17.4,0Z" class="g2_1" />
<g clip-path="url(#c2_1)">
<path d="M110.7,109c6.5,6.6,6.5,17.3,0,23.8c-6.6,6.6,-17.2,6.6,-23.8,0c-6.6,-6.5,-6.6,-17.2,0,-23.8c6.6,-6.5,17.2,-6.5,23.8,0Z" class="g3_1" />
</g>
<path d="M107.5,112.2c4.8,4.8,4.8,12.6,0,17.4c-4.8,4.9,-12.6,4.9,-17.4,0c-4.8,-4.8,-4.8,-12.6,0,-17.4c4.8,-4.8,12.6,-4.8,17.4,0Z" class="g4_1" />
<path d="M144.8,22.1c7.1,7.1,7.1,18.6,0,25.8C137.6,55,126.1,55,119,47.9c-7.2,-7.2,-7.2,-18.7,0,-25.8c7.1,-7.2,18.6,-7.2,25.8,0Z" class="g1_1" />
<path d="M141.3,25.5c5.2,5.2,5.2,13.7,0,18.9c-5.2,5.2,-13.7,5.2,-18.9,0c-5.2,-5.2,-5.2,-13.7,0,-18.9c5.2,-5.2,13.7,-5.2,18.9,0Z" class="g2_1" />
<path d="M144.8,22.1c7.1,7.1,7.1,18.6,0,25.8C137.6,55,126.1,55,119,47.9c-7.2,-7.2,-7.2,-18.7,0,-25.8c7.1,-7.2,18.6,-7.2,25.8,0Z" class="g5_1" />
<path d="M141.3,25.5c5.2,5.2,5.2,13.7,0,18.9c-5.2,5.2,-13.7,5.2,-18.9,0c-5.2,-5.2,-5.2,-13.7,0,-18.9c5.2,-5.2,13.7,-5.2,18.9,0Z" class="g6_1" />
<path d="M207.6,18.9c9.9,9.8,9.9,25.7,0,35.5c-9.8,9.8,-25.7,9.8,-35.5,0c-9.8,-9.8,-9.8,-25.7,0,-35.5c9.8,-9.8,25.7,-9.8,35.5,0Z" class="g1_1" />
<path d="M202.9,23.6c7.2,7.2,7.2,18.9,0,26.1c-7.2,7.2,-18.9,7.2,-26.1,0c-7.2,-7.2,-7.2,-18.9,0,-26.1c7.2,-7.2,18.9,-7.2,26.1,0Z" class="g2_1" />
<path d="M207.6,18.9c9.9,9.8,9.9,25.7,0,35.5c-9.8,9.8,-25.7,9.8,-35.5,0c-9.8,-9.8,-9.8,-25.7,0,-35.5c9.8,-9.8,25.7,-9.8,35.5,0Z" class="g5_1" />
<path d="M202.9,23.6c7.2,7.2,7.2,18.9,0,26.1c-7.2,7.2,-18.9,7.2,-26.1,0c-7.2,-7.2,-7.2,-18.9,0,-26.1c7.2,-7.2,18.9,-7.2,26.1,0Z" class="g6_1" />
<g clip-path="url(#c3_1)">
<path d="M54,88.9c10.3,10.2,10.3,26.8,0,37.1c-10.3,10.3,-26.9,10.3,-37.1,0C6.6,115.7,6.6,99.1,16.9,88.9C27.1,78.6,43.7,78.6,54,88.9Z" class="g1_1" />
</g>
<g clip-path="url(#c4_1)">
<path d="M49,93.8c7.6,7.5,7.6,19.7,0,27.2c-7.5,7.6,-19.7,7.6,-27.2,0c-7.5,-7.5,-7.5,-19.7,0,-27.2c7.5,-7.5,19.7,-7.5,27.2,0Z" class="g2_1" />
</g>
<g clip-path="url(#c3_1)">
<path d="M54,88.9c10.3,10.2,10.3,26.8,0,37.1c-10.3,10.3,-26.9,10.3,-37.1,0C6.6,115.7,6.6,99.1,16.9,88.9C27.1,78.6,43.7,78.6,54,88.9Z" class="g3_1" />
</g>
<g clip-path="url(#c4_1)">
<path d="M49,93.8c7.6,7.5,7.6,19.7,0,27.2c-7.5,7.6,-19.7,7.6,-27.2,0c-7.5,-7.5,-7.5,-19.7,0,-27.2c7.5,-7.5,19.7,-7.5,27.2,0Z" class="g4_1" />
</g>
<g clip-path="url(#c5_1)">
<g fill="#000000" >
<use xlink:href="#f0_2" transform="matrix(42,0,0,42,190.6,138.2)" />
<use xlink:href="#f0_a" transform="matrix(42,0,0,42,229.2,138.2)" />
<use xlink:href="#f0_8" transform="matrix(42,0,0,42,256.7,138.2)" />
<use xlink:href="#f0_7" transform="matrix(42,0,0,42,290.7,138.2)" />
<use xlink:href="#f0_3" transform="matrix(42,0,0,42,325.4,138.2)" />
<use xlink:href="#f0_5" transform="matrix(42,0,0,42,367.4,138.2)" />
<use xlink:href="#f0_5" transform="matrix(42,0,0,42,401.1,138.2)" />
<use xlink:href="#f0_9" transform="matrix(42,0,0,42,434.7,138.2)" />
<use xlink:href="#f0_4" transform="matrix(42,0,0,42,469.3,138.2)" />
<use xlink:href="#f0_5" transform="matrix(42,0,0,42,505.9,138.2)" />
<use xlink:href="#f0_6" transform="matrix(42,0,0,42,539.6,138.2)" />
</g>
</g>
<text x="190" y="138" dx="0,0,-0.8,0,0,0,0,0,0,0,0" class="s1_1">AxonDeepSeg</text>

<defs>
<path d="M584,389L436,844L287,389ZM5,0L343,1018H569L911,0H715L633,242H242L162,0Z" 
id="f0_2"
transform="scale(0.001,-0.001)" />

<path d="M0,0L251,388L34,753H228L352,532L493,753H636L423,427L674,0H480L321,275L146,0Z" 
id="f0_a"
transform="scale(0.001,-0.001)" />

<path d="M403,125c0,0,171,0,171,255c0,0,0,116,-41,183c0,0,-41,67,-126,67c0,0,-88,0,-130,-69c0,0,-43,-69,-43,-184c0,0,0,-123,45,-188c0,0,46,-64,124,-64ZM397,-15c0,0,-167,0,-255,119c0,0,-88,121,-88,276c0,0,0,167,97,278c0,0,97,111,257,111c0,0,151,0,249,-108c0,0,97,-108,97,-281c0,0,0,-179,-101,-287C653,93,552,-15,397,-15Z" 
id="f0_8"
transform="scale(0.001,-0.001)" />

<path d="M102,0V753H257V579c0,0,82,190,229,190c0,0,99,0,169,-63c0,0,71,-62,71,-220V0H556V471c0,0,0,74,-35,112c0,0,-34,38,-82,38c0,0,-67,0,-117,-59c0,0,-50,-58,-50,-175V0Z" 
id="f0_7"
transform="scale(0.001,-0.001)" />

<path d="M448,150c0,0,123,0,209,92c0,0,86,93,86,276c0,0,0,149,-75,252c0,0,-75,104,-198,104H295V150ZM107,0V1018H482c0,0,208,0,334,-147c0,0,126,-147,126,-364c0,0,0,-216,-130,-362C812,145,683,0,441,0Z" 
id="f0_3"
transform="scale(0.001,-0.001)" />

<path d="M571,465c0,0,-1,82,-49,133c0,0,-48,52,-119,52c0,0,-70,0,-117,-48c0,0,-47,-48,-55,-137ZM401,-15c0,0,-156,0,-252,105c0,0,-95,105,-95,284c0,0,0,171,96,283c0,0,96,112,261,112c0,0,161,0,249,-110c0,0,88,-111,88,-284l-1,-19H231c0,0,0,-77,14,-123c0,0,15,-47,58,-81c0,0,43,-34,108,-34c0,0,126,0,170,122L735,219C735,219,705,117,618,51c0,0,-86,-66,-217,-66Z" 
id="f0_5"
transform="scale(0.001,-0.001)" />

<path d="M433,119c0,0,81,0,119,71c0,0,37,71,37,181c0,0,0,115,-38,187c0,0,-38,72,-113,72c0,0,-68,0,-115,-59c0,0,-48,-59,-48,-155V309c0,0,0,-82,49,-136c0,0,49,-54,109,-54ZM102,-253V753H265V622c0,0,78,147,230,147c0,0,126,0,200,-109c0,0,75,-109,75,-278c0,0,0,-160,-71,-279c0,0,-72,-118,-213,-118c0,0,-145,0,-211,120V-253Z" 
id="f0_9"
transform="scale(0.001,-0.001)" />

<path d="M421,-15c0,0,-151,0,-265,63C156,48,43,111,5,245l179,38c0,0,32,-151,246,-151c0,0,97,0,150,39c0,0,53,39,53,96c0,0,0,42,-24,77c0,0,-24,36,-102,56L312,451c0,0,-100,26,-148,59c0,0,-48,33,-76,94c0,0,-29,60,-29,129c0,0,0,136,101,219c0,0,102,82,260,82c0,0,131,0,235,-58c0,0,103,-57,131,-162L612,771c0,0,-41,115,-188,115c0,0,-86,0,-131,-36c0,0,-45,-35,-45,-91c0,0,0,-87,141,-122L562,594c0,0,158,-40,212,-117c0,0,53,-77,53,-170c0,0,0,-150,-113,-236c0,0,-113,-86,-293,-86Z" 
id="f0_4"
transform="scale(0.001,-0.001)" />

<path d="M436,-153c0,0,196,0,196,101c0,0,0,37,-34,55c0,0,-35,19,-79,19H339c0,0,-52,0,-123,19c0,0,-36,-34,-36,-64c0,0,0,-51,61,-90c0,0,61,-40,195,-40ZM403,413c0,0,139,0,139,130c0,0,0,50,-35,84c0,0,-35,35,-101,35c0,0,-67,0,-104,-36c0,0,-37,-36,-37,-90c0,0,0,-55,36,-89c0,0,37,-34,102,-34Zm-5,-682c0,0,-364,0,-364,204c0,0,0,99,109,152c0,0,-70,59,-70,124c0,0,0,99,120,157c0,0,-104,63,-104,174c0,0,0,94,77,161c0,0,76,66,233,66c0,0,72,0,146,-16c0,0,34,144,181,144h63V767H737c0,0,-34,0,-60,-8c0,0,-26,-9,-50,-53c0,0,89,-73,89,-163c0,0,0,-100,-84,-166c0,0,-84,-65,-222,-65c0,0,-59,0,-139,19c0,0,-52,-24,-52,-74c0,0,0,-27,25,-50c0,0,25,-23,77,-23H545c0,0,114,0,180,-60c0,0,65,-59,65,-146c0,0,0,-107,-99,-177c0,0,-99,-70,-293,-70Z" 
id="f0_6"
transform="scale(0.001,-0.001)" />


</defs>

<!-- Any embedded fonts defined here -->
<style type="text/css" ><![CDATA[

@font-face {
	font-family: FranklinGothic-Medium_9;
	src: url("fonts/FranklinGothic-Medium_9.woff") format("woff");
}

]]></style>

</svg>
